<svg width="87" height="87" viewBox="0 0 87 87" fill="none" xmlns="http://www.w3.org/2000/svg">
<g clip-path="url(#clip0)">
<path d="M33.2872 79.8635C32.4995 79.8635 31.7444 79.551 31.1875 78.9936L0.869036 48.6622C-0.289793 47.5031 -0.289793 45.6242 0.868743 44.4648L16.8841 28.4407C17.4406 27.8841 18.1961 27.5707 18.9835 27.5707C19.7712 27.5707 20.5266 27.8835 21.0835 28.4404L33.2872 40.6485L65.9157 8.00623C66.4723 7.44937 67.2281 7.13623 68.0155 7.13623C68.8028 7.13623 69.5586 7.44908 70.1149 8.00623L86.1308 24.0298C87.2896 25.1889 87.2896 27.068 86.1308 28.2268L35.3867 78.9936C34.8301 79.5507 34.0749 79.8635 33.2872 79.8635ZM7.16584 46.5633L33.2872 72.6953L79.8337 26.1283L68.0152 14.3045L35.3867 46.9459C34.8301 47.5031 34.0749 47.8162 33.2872 47.8162C32.4998 47.8162 31.7444 47.5034 31.1875 46.9462L18.9841 34.7387L7.16584 46.5633Z" fill="#2A2C2F"/>
</g>
<defs>
<clipPath id="clip0">
<rect width="87" height="87" fill="white"/>
</clipPath>
</defs>
</svg>
