<svg width="87" height="87" viewBox="0 0 87 87" fill="none" xmlns="http://www.w3.org/2000/svg">
<g clip-path="url(#clip0)">
<path d="M72.6086 3.35107H14.3919C5.8299 3.35107 -0.843012 10.7982 0.0871252 19.3046L4.1973 56.9121C4.997 64.2244 11.1468 69.7385 18.5021 69.7385C21.0122 69.7385 40.6014 69.7385 44.1587 69.7385L56.1096 81.8819C59.4586 85.2863 65.2826 83.5095 66.1396 78.7931L67.7859 69.7385C76.5035 69.7385 82.0495 63.8083 82.8036 56.9121L86.9138 19.3046C87.8439 10.7932 81.1656 3.35107 72.6086 3.35107ZM81.9134 18.758L77.8035 56.3655C77.2831 61.1222 73.2833 64.7089 68.4985 64.7089H65.6869C64.4715 64.7089 63.4303 65.5781 63.2127 66.7738L61.1908 77.8935C61.0621 78.6003 60.1973 78.8659 59.694 78.3542L51.0328 69.5531C53.5791 68.519 52.8404 64.7086 50.0879 64.7086C46.4052 64.7086 21.6577 64.7086 18.5021 64.7086C13.7176 64.7086 9.71743 61.1218 9.19737 56.3652L5.0872 18.758C4.48164 13.2218 8.82552 8.38065 14.3919 8.38065H72.6086C78.1777 8.38065 82.5186 13.2245 81.9134 18.758Z" fill="#2A2C2F"/>
<path d="M28.2112 42.2241C30.4692 42.2241 32.2996 40.3937 32.2996 38.1357C32.2996 35.8778 30.4692 34.0474 28.2112 34.0474C25.9533 34.0474 24.1229 35.8778 24.1229 38.1357C24.1229 40.3937 25.9533 42.2241 28.2112 42.2241Z" fill="#2A2C2F"/>
<path d="M43.4998 42.2241C45.7578 42.2241 47.5882 40.3937 47.5882 38.1357C47.5882 35.8778 45.7578 34.0474 43.4998 34.0474C41.2419 34.0474 39.4114 35.8778 39.4114 38.1357C39.4114 40.3937 41.2419 42.2241 43.4998 42.2241Z" fill="#2A2C2F"/>
<path d="M58.7884 42.2241C61.0463 42.2241 62.8768 40.3937 62.8768 38.1357C62.8768 35.8778 61.0463 34.0474 58.7884 34.0474C56.5304 34.0474 54.7 35.8778 54.7 38.1357C54.7 40.3937 56.5304 42.2241 58.7884 42.2241Z" fill="#2A2C2F"/>
</g>
<defs>
<clipPath id="clip0">
<rect width="87" height="87" fill="white"/>
</clipPath>
</defs>
</svg>
