<svg width="87" height="87" viewBox="0 0 87 87" fill="none" xmlns="http://www.w3.org/2000/svg">
<g clip-path="url(#clip0)">
<path d="M86.0327 37.666L45.5007 1.1459C44.3884 0.144077 42.6988 0.142906 41.5854 1.14355L0.970147 37.6636C0.0690966 38.4739 -0.239651 39.756 0.194763 40.8876C0.628299 42.0186 1.71477 42.7659 2.92691 42.7659H12.119V83.6799C12.119 85.2963 13.4293 86.6063 15.0451 86.6063H71.9557C73.5718 86.6063 74.8818 85.296 74.8818 83.6799V42.7659H84.0739C85.2855 42.7659 86.3713 42.0192 86.8055 40.8888C87.2402 39.7581 86.9329 38.4765 86.0327 37.666ZM36.7699 54.5299H50.2309V56.4322C50.2309 60.143 47.2117 63.1623 43.5003 63.1623C39.7888 63.1623 36.7696 60.143 36.7696 56.4322V54.5299H36.7699ZM69.0296 80.7532H46.4178C46.4219 80.6938 46.4269 80.6343 46.4269 80.5737V68.6676C51.9583 67.3447 56.0839 62.3623 56.0839 56.4319V54.5296H57.9859C59.602 54.5296 60.912 53.2193 60.912 51.6033C60.912 49.9875 59.6017 48.6769 57.9859 48.6769H53.6696V41.9468C53.6696 40.3305 52.3593 39.0205 50.7435 39.0205C49.1277 39.0205 47.8175 40.3308 47.8175 41.9468V48.6769H39.1845V41.9468C39.1845 40.3305 37.8743 39.0205 36.2585 39.0205C34.6424 39.0205 33.3324 40.3308 33.3324 41.9468V48.6769H29.0155C27.3994 48.6769 26.0894 49.9878 26.0894 51.6033C26.0894 53.2196 27.3997 54.5296 29.0155 54.5296H30.9175V56.4319C30.9175 62.362 35.0431 67.3447 40.5745 68.6676V80.5737C40.5745 80.6343 40.5798 80.6938 40.5836 80.7532H17.9718V41.1512L43.5011 18.3977L69.0293 41.1512V80.7532H69.0296ZM73.0706 36.9134L45.4482 12.2936C44.3389 11.3044 42.6637 11.3044 41.5543 12.293L13.9308 36.9134H10.5586L43.5407 7.25669L76.4551 36.9134H73.0706Z" fill="#2A2C2F"/>
</g>
<defs>
<clipPath id="clip0">
<rect width="87" height="87" fill="white"/>
</clipPath>
</defs>
</svg>
