<svg width="87" height="87" viewBox="0 0 87 87" fill="none" xmlns="http://www.w3.org/2000/svg">
<path d="M43.6699 0.000663757L43.5617 0C25.7259 0 11.2148 14.5124 11.2148 32.3509C11.2148 42.1307 16.2136 49.7586 21.7832 57.3546L43.5192 87L65.3489 57.3546C70.9185 49.7592 75.9172 42.1313 75.9172 32.3515C75.9172 14.5482 61.4606 0.0570832 43.6699 0.000663757ZM61.2383 54.3405C61.2383 54.3405 44.3549 77.4293 43.5883 78.4727L25.8938 54.3405C20.6515 47.1905 16.3125 40.6007 16.3125 32.3509C16.3125 17.3566 28.4818 5.15142 43.4622 5.09766H43.5657C58.5938 5.09832 70.8196 17.3241 70.8196 32.3515C70.8196 40.6014 66.4806 47.1912 61.2383 54.3405Z" fill="#2A2C2F"/>
<path d="M43.5657 11.0967L37.6828 23.0178L24.5278 24.9294L34.0468 34.208L31.7993 47.3106L43.5657 41.1244L55.3321 47.3106L53.0847 34.208L62.6043 24.9294L49.4486 23.0178L43.5657 11.0967ZM48.5625 37.9921L43.5664 35.365L38.5696 37.9921L39.5241 32.4285L35.4818 28.4884L41.068 27.6767L43.5664 22.6149L46.0641 27.6767L51.6503 28.4884L47.608 32.4285L48.5625 37.9921Z" fill="#2A2C2F"/>
</svg>
