<svg width="40" height="40" viewBox="0 0 40 40" fill="none" xmlns="http://www.w3.org/2000/svg">
<path fill-rule="evenodd" clip-rule="evenodd" d="M20 0C8.9543 0 0 8.95432 0 20C0 31.0457 8.9543 40 20 40C31.0457 40 40 31.0457 40 20C40 8.95432 31.0457 0 20 0ZM15.6048 9.39717C16.7426 9.3454 17.1061 9.33274 20.003 9.33274H19.9997C22.8975 9.33274 23.2598 9.3454 24.3975 9.39717C25.533 9.44917 26.3088 9.62897 26.9888 9.89274C27.691 10.165 28.2842 10.5294 28.8775 11.1227C29.471 11.7157 29.8352 12.3108 30.1087 13.0123C30.371 13.6905 30.551 14.4657 30.6042 15.6012C30.6553 16.739 30.6688 17.1026 30.6688 19.9995C30.6688 22.8964 30.6553 23.2591 30.6042 24.3969C30.551 25.532 30.371 26.3073 30.1087 26.9858C29.8352 27.6871 29.471 28.2823 28.8775 28.8751C28.285 29.4686 27.6908 29.8337 26.9893 30.1063C26.3108 30.37 25.5347 30.5497 24.3991 30.6017C23.2613 30.6537 22.8988 30.6663 20.0017 30.6663C17.105 30.6663 16.7417 30.6537 15.6039 30.6017C14.4685 30.5497 13.6932 30.37 13.0145 30.1063C12.3134 29.8337 11.7183 29.4686 11.1256 28.8751C10.5325 28.2823 10.168 27.6871 9.89537 26.9856C9.63182 26.3073 9.45205 25.5322 9.39983 24.3967C9.34828 23.2589 9.33537 22.8964 9.33537 19.9995C9.33537 17.1026 9.34873 16.7388 9.3996 15.601C9.45072 14.4659 9.63072 13.6905 9.89517 13.0121C10.1685 12.3108 10.533 11.7157 11.1263 11.1227C11.7192 10.5296 12.3143 10.1652 13.0159 9.89274C13.6941 9.62897 14.4692 9.44917 15.6048 9.39717Z" fill="white"/>
<path fill-rule="evenodd" clip-rule="evenodd" d="M19.0376 11.2555L19.639 11.2554L19.9945 11.2555C22.8426 11.2555 23.1801 11.2657 24.3048 11.3168C25.3448 11.3644 25.9093 11.5381 26.2852 11.6841C26.783 11.8775 27.138 12.1086 27.511 12.4819C27.8845 12.8553 28.1155 13.2108 28.3092 13.7086C28.4552 14.0842 28.6293 14.6486 28.6768 15.6886C28.7278 16.8131 28.7387 17.1509 28.7387 19.9975C28.7387 22.8443 28.7278 23.182 28.6768 24.3065C28.629 25.3465 28.4552 25.9109 28.3092 26.2865C28.116 26.7843 27.8845 27.1387 27.511 27.5119C27.1378 27.8852 26.7832 28.1163 26.2852 28.3096C25.9097 28.4563 25.3448 28.6297 24.3048 28.6771C23.1804 28.7283 22.8426 28.7394 19.9945 28.7394C17.1463 28.7394 16.8087 28.7283 15.6843 28.6771C14.6442 28.6291 14.0798 28.4554 13.7036 28.3094C13.2058 28.1161 12.8502 27.885 12.4769 27.5116C12.1036 27.1383 11.8725 26.7836 11.6787 26.2856C11.5327 25.9101 11.3587 25.3456 11.3113 24.3056C11.2602 23.1811 11.25 22.8433 11.25 19.9949C11.25 17.1464 11.2602 16.8104 11.3113 15.6859C11.3589 14.6459 11.5327 14.0815 11.6787 13.7055C11.872 13.2077 12.1036 12.8522 12.4769 12.4788C12.8502 12.1055 13.2058 11.8744 13.7036 11.6806C14.0796 11.5339 14.6442 11.3606 15.6843 11.3128C16.6683 11.2684 17.0496 11.255 19.0376 11.2528V11.2555ZM25.6885 13.027C24.9817 13.027 24.4084 13.5997 24.4084 14.3066C24.4084 15.0133 24.9817 15.5866 25.6885 15.5866C26.395 15.5866 26.9685 15.0133 26.9685 14.3066C26.9685 13.5999 26.395 13.0266 25.6885 13.0266V13.027ZM14.5169 19.9995C14.5169 16.9744 16.9695 14.5218 19.9945 14.5216C23.0196 14.5216 25.4717 16.9743 25.4717 19.9995C25.4717 23.0246 23.0199 25.4762 19.9947 25.4762C16.9696 25.4762 14.5169 23.0246 14.5169 19.9995Z" fill="white"/>
<path d="M20.0009 16.4439C21.9645 16.4439 23.5565 18.0357 23.5565 19.9995C23.5565 21.9631 21.9645 23.5551 20.0009 23.5551C18.0371 23.5551 16.4453 21.9631 16.4453 19.9995C16.4453 18.0357 18.0371 16.4439 20.0009 16.4439Z" fill="white"/>
</svg>
